<svg width="300" height="300" viewBox="0 0 300 300" fill="none" xmlns="http://www.w3.org/2000/svg">
  <!-- Upper black bar -->
  <rect x="0" y="0" width="300" height="60" fill="black" />
  
  <!-- CMG Letters -->
  <g transform="translate(50, 90)">
    <path d="M50 0C77.6142 0 100 22.3858 100 50C100 77.6142 77.6142 100 50 100H0V0H50Z" fill="black"/>
    <path d="M50 20C66.5685 20 80 33.4315 80 50C80 66.5685 66.5685 80 50 80H20V20H50Z" fill="white"/>
    <path d="M50 40C55.5228 40 60 44.4772 60 50C60 55.5228 55.5228 60 50 60H40V40H50Z" fill="black"/>
  </g>
  
  <g transform="translate(110, 90)">
    <path d="M0 0H30L80 50L30 100H0L50 50L0 0Z" fill="black"/>
  </g>
  
  <g transform="translate(170, 90)">
    <path d="M0 0H50C77.6142 0 100 22.3858 100 50C100 77.6142 77.6142 100 50 100H0V0Z" fill="black"/>
    <path d="M20 20H50C66.5685 20 80 33.4315 80 50C80 66.5685 66.5685 80 50 80H20V20Z" fill="white"/>
    <path d="M40 40H50C55.5228 40 60 44.4772 60 50C60 55.5228 55.5228 60 50 60H40V40Z" fill="black"/>
  </g>
  
  <!-- Bottom arrow -->
  <path d="M0 190H150L300 190V300H0V190Z" fill="black"/>
  <path d="M150 190L50 300H250L150 190Z" fill="white"/>
</svg> 